<svg height="495pt" viewBox="0 0 495.99971 495" width="495pt" xmlns="http://www.w3.org/2000/svg"><g fill="#fbe24f"><path d="m209.175781 72.40625h13.648438c5.625 0 10.769531-3.175781 13.28125-8.207031 2.558593-5.121094 3.894531-10.777344 3.894531-16.503907 0-9.792968-3.886719-19.175781-10.808594-26.097656l-13.191406-13.191406-13.191406 13.191406c-6.921875 6.921875-10.808594 16.304688-10.808594 26.097656 0 5.726563 1.335938 11.382813 3.894531 16.503907 2.511719 5.03125 7.65625 8.207031 13.28125 8.207031zm0 0"/><path d="m129.175781 72.40625h13.648438c5.625 0 10.769531-3.175781 13.28125-8.207031 2.558593-5.121094 3.894531-10.777344 3.894531-16.503907 0-9.792968-3.886719-19.175781-10.808594-26.097656l-13.191406-13.191406-13.191406 13.191406c-6.921875 6.921875-10.808594 16.304688-10.808594 26.097656 0 5.726563 1.335938 11.382813 3.894531 16.503907 2.511719 5.03125 7.65625 8.207031 13.28125 8.207031zm0 0"/><path d="m289.175781 72.40625h13.648438c5.625 0 10.769531-3.175781 13.28125-8.207031 2.558593-5.121094 3.894531-10.777344 3.894531-16.503907 0-9.792968-3.886719-19.175781-10.808594-26.097656l-13.191406-13.191406-13.191406 13.191406c-6.921875 6.921875-10.808594 16.304688-10.808594 26.097656 0 5.726563 1.335938 11.382813 3.894531 16.503907 2.511719 5.03125 7.65625 8.207031 13.28125 8.207031zm0 0"/></g><path d="m280 104.40625h32v80h-32zm0 0" fill="#995c57"/><path d="m200 104.40625h32v80h-32zm0 0" fill="#995c57"/><path d="m120 104.40625h32v80h-32zm0 0" fill="#995c57"/><path d="m24 376.40625v-152c0-22.089844 17.910156-40 40-40h304c22.089844 0 40 17.910156 40 40v152zm0 0" fill="#e6e6e6"/><path d="m8 376.40625h224v32h-224zm0 0" fill="#71728d"/><path d="m8 376.40625h200v32h-200zm0 0" fill="#9798bc"/><path d="m408 280.40625h-16c-8.839844 0-16 7.160156-16 16v16h-48v-40c0-8.839844-7.160156-16-16-16s-16 7.160156-16 16v32c0 2.808594-.480469 5.496094-1.367188 8h-45.273437c-.878906-2.503906-1.359375-5.191406-1.359375-8v-48.007812c0-13.257813-10.742188-24-24-23.992188s-24 10.75-24 24.007812v47.992188c0 13.253906-10.742188 24-24 24s-24-10.746094-24-24v-48c0-13.257812-10.742188-24-24-24s-24 10.742188-24 24v32c0 13.253906-10.742188 24-24 24s-24-10.746094-24-24v-24c0-8.839844-7.160156-16-16-16h-16v-24c0-22.089844 17.910156-40 40-40h304c22.089844 0 40 17.910156 40 40zm0 0" fill="#f5bbd4"/><path d="m456 488.40625h-224l-32-48h288zm0 0" fill="#71728d"/><path d="m200 440.40625 32 48h200l32-48zm0 0" fill="#9798bc"/><path d="m456 440.40625h-224v-112c0-8.839844 7.160156-16 16-16h192c8.839844 0 16 7.160156 16 16zm0 0" fill="#995c57"/><path d="m296 312.40625v80c0 8.839844 7.160156 16 16 16s16-7.160156 16-16v-16c0-8.839844 7.160156-16 16-16s16 7.160156 16 16 7.160156 16 16 16 16-7.160156 16-16v-16c0-8.839844 7.160156-16 16-16s16 7.160156 16 16v16c0 8.839844 7.160156 16 16 16s16-7.160156 16-16v-48c0-8.839844-7.160156-16-16-16zm0 0" fill="#fbe24f"/><path d="m232 416.40625h-224c-4.425781 0-8-3.578125-8-8v-32c0-4.425781 3.574219-8 8-8h224v16h-216v16h216zm0 0"/><path d="m32 376.40625h-16v-152c0-26.472656 21.527344-48 48-48h304c26.472656 0 48 21.527344 48 48v88h-16v-88c0-17.648438-14.351562-32-32-32h-304c-17.648438 0-32 14.351562-32 32zm0 0"/><path d="m384 312.40625h-16v-16c0-13.230469 10.769531-24 24-24h16v16h-16c-4.414062 0-8 3.582031-8 8zm0 0"/><path d="m302.175781 315.070312-15.097656-5.328124c.617187-1.710938.921875-3.503907.921875-5.335938v-32c0-13.230469 10.769531-24 24-24s24 10.769531 24 24v40h-16v-40c0-4.417969-3.585938-8-8-8s-8 3.582031-8 8v32c0 3.648438-.617188 7.230469-1.824219 10.664062zm0 0"/><path d="m176 336.40625c-17.648438 0-32-14.351562-32-32v-48c0-8.824219-7.175781-16-16-16s-16 7.175781-16 16v32c0 17.648438-14.351562 32-32 32s-32-14.351562-32-32v-24c0-4.417969-3.585938-8-8-8h-16v-16h16c13.230469 0 24 10.769531 24 24v24c0 8.824219 7.175781 16 16 16s16-7.175781 16-16v-32c0-17.648438 14.351562-32 32-32s32 14.351562 32 32v48c0 8.824219 7.175781 16 16 16s16-7.175781 16-16v-48c0-17.648438 14.351562-32 32-32s32 14.351562 32 32v48c0 1.832031.304688 3.625.910156 5.335938l-15.09375 5.328124c-1.199218-3.433593-1.816406-7.015624-1.816406-10.664062v-48c0-8.824219-7.175781-16-16-16s-16 7.175781-16 16v48c0 17.648438-14.351562 32-32 32zm0 0"/><path d="m222.824219 80.40625h-13.640625c-8.710938 0-16.535156-4.839844-20.441406-12.632812-3.101563-6.199219-4.742188-13.144532-4.742188-20.078126 0-11.992187 4.671875-23.273437 13.160156-31.753906l13.183594-13.191406c3-3 8.3125-3 11.3125 0l13.183594 13.191406c8.488281 8.480469 13.160156 19.761719 13.160156 31.753906 0 6.933594-1.640625 13.871094-4.742188 20.078126-3.898437 7.792968-11.730468 12.632812-20.433593 12.632812zm-6.824219-60.679688-7.527344 7.527344c-5.464844 5.464844-8.472656 12.71875-8.472656 20.441406 0 4.460938 1.054688 8.925782 3.054688 12.925782 1.160156 2.335937 3.511718 3.785156 6.121093 3.785156h13.640625c2.609375 0 4.960938-1.449219 6.128906-3.785156 2-4 3.054688-8.464844 3.054688-12.925782 0-7.722656-3.007812-14.984374-8.472656-20.441406zm0 0"/><path d="m208 72.40625h16v32h-16zm0 0"/><path d="m232 192.40625h-32c-4.425781 0-8-3.585938-8-8v-80c0-4.417969 3.574219-8 8-8h32c4.425781 0 8 3.582031 8 8v80c0 4.414062-3.574219 8-8 8zm-24-16h16v-64h-16zm0 0"/><path d="m142.824219 80.40625h-13.640625c-8.710938 0-16.535156-4.839844-20.441406-12.632812-3.101563-6.199219-4.742188-13.144532-4.742188-20.078126 0-11.992187 4.671875-23.273437 13.160156-31.753906l13.183594-13.191406c3-3 8.3125-3 11.3125 0l13.183594 13.191406c8.488281 8.480469 13.160156 19.761719 13.160156 31.753906 0 6.933594-1.640625 13.871094-4.742188 20.078126-3.898437 7.792968-11.730468 12.632812-20.433593 12.632812zm-6.824219-60.679688-7.527344 7.527344c-5.464844 5.464844-8.472656 12.71875-8.472656 20.441406 0 4.460938 1.054688 8.925782 3.054688 12.925782 1.160156 2.335937 3.511718 3.785156 6.121093 3.785156h13.640625c2.609375 0 4.960938-1.449219 6.128906-3.785156 2-4 3.054688-8.464844 3.054688-12.925782 0-7.722656-3.007812-14.984374-8.472656-20.441406zm0 0"/><path d="m128 72.40625h16v32h-16zm0 0"/><path d="m152 192.40625h-32c-4.425781 0-8-3.585938-8-8v-80c0-4.417969 3.574219-8 8-8h32c4.425781 0 8 3.582031 8 8v80c0 4.414062-3.574219 8-8 8zm-24-16h16v-64h-16zm0 0"/><path d="m302.824219 80.40625h-13.640625c-8.710938 0-16.535156-4.839844-20.441406-12.632812-3.101563-6.199219-4.742188-13.144532-4.742188-20.078126 0-11.992187 4.671875-23.273437 13.160156-31.753906l13.183594-13.191406c3-3 8.3125-3 11.3125 0l13.183594 13.191406c8.488281 8.480469 13.160156 19.761719 13.160156 31.753906 0 6.933594-1.640625 13.871094-4.742188 20.078126-3.898437 7.792968-11.730468 12.632812-20.433593 12.632812zm-6.824219-60.679688-7.527344 7.527344c-5.464844 5.464844-8.472656 12.71875-8.472656 20.441406 0 4.460938 1.054688 8.925782 3.054688 12.925782 1.160156 2.335937 3.511718 3.785156 6.121093 3.785156h13.640625c2.609375 0 4.960938-1.449219 6.128906-3.785156 2-4 3.054688-8.464844 3.054688-12.925782 0-7.722656-3.007812-14.984374-8.472656-20.441406zm0 0"/><path d="m288 72.40625h16v32h-16zm0 0"/><path d="m312 192.40625h-32c-4.425781 0-8-3.585938-8-8v-80c0-4.417969 3.574219-8 8-8h32c4.425781 0 8 3.582031 8 8v80c0 4.414062-3.574219 8-8 8zm-24-16h16v-64h-16zm0 0"/><path d="m456 448.40625h-224c-4.425781 0-8-3.578125-8-8v-112c0-13.230469 10.769531-24 24-24h192c13.230469 0 24 10.769531 24 24v112c0 4.421875-3.574219 8-8 8zm-216-16h208v-104c0-4.417969-3.585938-8-8-8h-192c-4.414062 0-8 3.582031-8 8zm0 0"/><path d="m456 496.40625h-224c-2.671875 0-5.167969-1.335938-6.65625-3.558594l-32-48c-1.632812-2.457031-1.792969-5.609375-.398438-8.210937 1.390626-2.597657 4.101563-4.230469 7.054688-4.230469h288c2.953125 0 5.664062 1.625 7.054688 4.222656 1.394531 2.601563 1.234374 5.761719-.398438 8.207032l-32 48c-1.488281 2.234374-3.984375 3.570312-6.65625 3.570312zm-219.71875-16h215.4375l21.335938-32h-258.109376zm0 0"/><path d="m312 416.40625c-13.230469 0-24-10.769531-24-24v-80h16v80c0 4.414062 3.585938 8 8 8s8-3.585938 8-8v-16c0-13.230469 10.769531-24 24-24s24 10.769531 24 24c0 4.414062 3.585938 8 8 8s8-3.585938 8-8v-16c0-13.230469 10.769531-24 24-24s24 10.769531 24 24v16c0 4.414062 3.585938 8 8 8s8-3.585938 8-8v-48h16v48c0 13.230469-10.769531 24-24 24s-24-10.769531-24-24v-16c0-4.417969-3.585938-8-8-8s-8 3.582031-8 8v16c0 13.230469-10.769531 24-24 24s-24-10.769531-24-24c0-4.417969-3.585938-8-8-8s-8 3.582031-8 8v16c0 13.230469-10.769531 24-24 24zm0 0"/><path d="m232 352.40625h64v16h-64zm0 0"/></svg>