<svg id="Capa_1" enable-background="new 0 0 512 512" height="512" viewBox="0 0 512 512" width="512" xmlns="http://www.w3.org/2000/svg"><g><g><g><g><path d="m193.066 313.066c11.605-14.35 18.555-32.619 18.555-52.511 0-46.154-37.416-83.568-83.57-83.568s-83.57 37.415-83.57 83.568c0 19.892 6.95 38.161 18.555 52.511" fill="#fff7bf"/><circle cx="128.052" cy="138.781" fill="#ccf5fc" r="38.206"/></g><path d="m180.734 313.624c-29.518 0-52.678 32.912-52.678 32.912s-21.846-32.912-52.691-32.912c-30.002 0-54.501 24.745-56.105 54.705-.903 16.926 4.553 29.807 12.241 41.473 15.362 23.309 96.654 92.198 96.654 92.198s80.985-68.684 96.449-92.197c7.704-11.72 13.145-24.548 12.238-41.473-1.604-29.961-26.104-54.706-56.108-54.706" fill="#ff7d97"/></g><path d="m128.052 342.962-36.049-71.112 36.049-36.048 36.048 36.048z" fill="#ccf5fc"/><g><g><path d="m448.96 313.066c11.605-14.35 18.555-32.619 18.555-52.511 0-46.154-37.416-83.568-83.57-83.568s-83.57 37.415-83.57 83.568c0 19.892 6.95 38.161 18.555 52.511" fill="#fff7bf"/><circle cx="383.945" cy="138.781" fill="#ccf5fc" r="38.206"/></g><path d="m436.627 313.624c-29.518 0-52.678 32.912-52.678 32.912s-21.846-32.912-52.691-32.912c-30.002 0-54.501 24.745-56.105 54.705-.903 16.926 4.553 29.807 12.241 41.473 15.363 23.309 96.654 92.198 96.654 92.198s80.985-68.684 96.449-92.197c7.704-11.72 13.145-24.548 12.238-41.473-1.603-29.961-26.104-54.706-56.108-54.706" fill="#ff7d97"/></g><path d="m383.945 342.962-36.049-71.112 36.049-36.048 36.049 36.048z" fill="#ccf5fc"/></g><g><g><path d="m128.048 421.399c-4.182 0-7.996-2.709-9.405-6.635-1.39-3.874-.2-8.32 2.936-10.987 3.271-2.781 8.098-3.143 11.745-.873 3.497 2.176 5.339 6.403 4.533 10.445-.918 4.615-5.101 8.05-9.809 8.05z"/><path d="m502.721 367.795c-.915-17.086-8.148-33.13-20.37-45.176-5.564-5.483-11.891-9.864-18.713-13.03 9.008-14.663 13.877-31.695 13.877-49.033 0-39.732-24.893-73.759-59.902-87.305 8.965-8.759 14.539-20.975 14.539-34.469 0-23.153-16.408-42.545-38.207-47.162v-14.757c16.721-4.429 29.081-19.689 29.081-37.783 0-21.549-17.532-39.08-39.081-39.08s-39.081 17.531-39.081 39.08c0 5.522 4.477 10 10 10s10-4.478 10-10c0-10.521 8.56-19.08 19.081-19.08s19.081 8.56 19.081 19.08-8.56 19.08-19.081 19.08c-5.523 0-10 4.478-10 10v23.459c-21.799 4.617-38.207 24.009-38.207 47.162 0 13.494 5.573 25.711 14.539 34.469-35.009 13.546-59.902 47.573-59.902 87.305 0 17.339 4.868 34.37 13.876 49.033-6.823 3.167-13.15 7.547-18.714 13.032-12.221 12.045-19.455 28.089-20.37 45.177-1.17 21.931 7.359 37.617 13.877 47.509 15.968 24.229 95.174 91.473 98.538 94.323 1.866 1.581 4.166 2.371 6.465 2.371 2.301 0 4.603-.791 6.468-2.373 3.352-2.843 82.266-69.896 98.337-94.331 7.067-10.749 15.029-25.862 13.869-47.501zm-146.982-229.014c0-15.553 12.653-28.206 28.207-28.206s28.207 12.653 28.207 28.206-12.653 28.206-28.207 28.206-28.207-12.653-28.207-28.206zm-45.364 121.775c0-40.565 33.003-73.568 73.57-73.568s73.57 33.003 73.57 73.568c0 15.841-4.888 30.778-14.171 43.419-2.22-.233-4.461-.351-6.717-.351-8.855 0-17.12 2.373-24.53 5.92l16.816-33.172c1.956-3.857 1.209-8.534-1.848-11.593l-36.049-36.049c-3.905-3.904-10.237-3.904-14.143 0l-36.049 36.049c-3.058 3.059-3.804 7.735-1.848 11.593l16.634 32.813c-7.284-3.349-15.461-5.561-24.352-5.561-2.254 0-4.494.118-6.713.351-9.282-12.642-14.17-27.578-14.17-43.419zm73.57 60.29-23.852-47.051 23.852-23.851 23.852 23.851zm88.197 83.462c-11.007 16.736-62.402 62.44-88.097 84.541-25.783-22.152-77.367-67.959-88.3-84.548-8.103-12.298-11.274-22.896-10.605-35.438 1.335-24.945 22.024-45.239 46.12-45.239 20.75 0 37.493 19.413 42.686 26.164v62.212c0 5.522 4.477 10 10 10s10-4.478 10-10v-62.066c5.533-6.876 22.923-26.31 42.682-26.31 24.097 0 44.787 20.294 46.122 45.24.67 12.513-2.503 23.114-10.608 35.444z"/><path d="m246.827 367.795c-.915-17.086-8.148-33.13-20.37-45.176-5.564-5.483-11.891-9.864-18.713-13.03 9.008-14.663 13.877-31.695 13.877-49.033 0-39.732-24.893-73.759-59.902-87.305 8.965-8.759 14.539-20.975 14.539-34.469 0-23.153-16.408-42.545-38.207-47.162v-14.757c16.721-4.429 29.081-19.689 29.081-37.783 0-21.549-17.532-39.08-39.081-39.08s-39.08 17.531-39.08 39.08c0 5.522 4.477 10 10 10s10-4.478 10-10c0-10.521 8.56-19.08 19.081-19.08s19.081 8.56 19.081 19.08-8.56 19.08-19.081 19.08c-5.523 0-10 4.478-10 10v23.459c-21.799 4.617-38.207 24.009-38.207 47.162 0 13.494 5.573 25.711 14.539 34.469-35.009 13.546-59.902 47.573-59.902 87.305 0 17.339 4.868 34.37 13.876 49.033-6.823 3.167-13.15 7.547-18.714 13.032-12.221 12.045-19.455 28.089-20.37 45.177-1.17 21.931 7.359 37.617 13.877 47.509 15.968 24.229 95.174 91.473 98.538 94.323 1.866 1.581 4.166 2.371 6.465 2.371 2.301 0 4.603-.791 6.468-2.373 3.352-2.843 82.266-69.896 98.337-94.331 7.067-10.749 15.028-25.862 13.868-47.501zm-146.982-229.014c0-15.553 12.653-28.206 28.207-28.206s28.207 12.653 28.207 28.206-12.653 28.206-28.207 28.206-28.207-12.653-28.207-28.206zm-45.363 121.775c0-40.565 33.003-73.568 73.57-73.568s73.57 33.003 73.57 73.568c0 15.841-4.888 30.778-14.171 43.419-2.22-.233-4.461-.351-6.717-.351-8.855 0-17.12 2.373-24.53 5.92l16.816-33.172c1.956-3.857 1.209-8.534-1.848-11.593l-36.049-36.049c-3.905-3.904-10.237-3.904-14.143 0l-36.049 36.049c-3.058 3.059-3.804 7.735-1.848 11.593l16.634 32.813c-7.284-3.349-15.461-5.561-24.352-5.561-2.254 0-4.494.118-6.713.351-9.282-12.642-14.17-27.578-14.17-43.419zm73.57 60.29-23.852-47.051 23.852-23.851 23.852 23.851zm88.197 83.462c-11.007 16.736-62.402 62.44-88.097 84.541-25.783-22.152-77.367-67.959-88.3-84.548-8.103-12.298-11.274-22.896-10.605-35.438 1.335-24.945 22.024-45.239 46.119-45.239 20.751 0 37.493 19.413 42.687 26.164v16.212c0 5.522 4.477 10 10 10s10-4.478 10-10v-16.066c5.533-6.876 22.923-26.31 42.682-26.31 24.097 0 44.787 20.294 46.122 45.24.67 12.513-2.503 23.114-10.608 35.444z"/></g></g></g></svg>