<svg height="511pt" viewBox="0 -44 511.99971 511" width="511pt" xmlns="http://www.w3.org/2000/svg"><path d="m480.273438 212.761719c-9.132813-2.617188-18.488282-.710938-25.667969 4.398437-5.367188 3.816406-11.871094 5.625-18.199219 3.816406l-87.015625-21.507812-16.53125 57.640625 87.015625 21.507813c6.328125 1.820312 10.886719 6.804687 13.414062 12.882812 3.378907 8.136719 10.304688 14.714844 19.429688 17.332031 15.921875 4.566407 32.523438-4.636719 37.089844-20.558593 2.121094-7.378907 1.269531-14.914063-1.828125-21.320313 6.027343-3.789063 10.734375-9.722656 12.851562-17.109375 4.558594-15.914062-4.644531-32.523438-20.558593-37.082031zm0 0" fill="#e0f4ff"/><path d="m130.738281 11.996094-82.648437 288.230468c25.597656 7.335938 62.566406 11.03125 101.9375 10.183594l155.167968-32.984375c19.53125-10.589843 37.558594-25.746093 43.628907-46.933593 22.875-79.777344-137.082031-195.269532-218.085938-218.496094zm0 0" fill="#fed2a4"/><path d="m501.824219 313.398438c0 33.121093-26.847657 59.96875-59.96875 59.96875h-371.808594c-33.117187 0-59.96875-26.84375-59.96875-59.96875zm0 0" fill="#ff637b"/><path d="m441.855469 373.367188-14.464844 28.925781c-3.386719 6.773437-10.3125 11.054687-17.878906 11.054687h-307.121094c-7.566406 0-14.492187-4.28125-17.878906-11.054687l-14.464844-28.925781zm0 0" fill="#766e6e"/><path d="m305.195312 277.429688c-5.21875-14.574219-15.621093-24-35.25-24-33.125 0-39.980468 26.847656-39.980468 59.96875h79.957031c0-13.492188-1.136719-25.945313-4.726563-35.96875zm0 0" fill="#7fe881"/><path d="m189.984375 253.429688c-32.121094 0-39.539063 25.246093-39.957031 56.980468-.011719.988282-.019532 1.988282-.019532 2.988282h79.957032c0-33.121094-6.855469-59.96875-39.980469-59.96875zm0 0" fill="#7fe881"/><path d="m130.738281 11.996094c37.140625 10.644531 48.753907 83.804687 25.925781 163.394531-22.820312 79.597656-71.433593 135.480469-108.574218 124.835937-37.140625-10.65625-49.332032-83.808593-26.515625-163.40625 22.816406-79.585937 72.023437-135.480468 109.164062-124.824218zm0 0" fill="#ff637b"/><path d="m70.199219 150.59375c22.949219-80.007812 58.648437-59.539062 38.429687 11.023438-24.21875 84.425781-58.089844 57.582031-38.429687-11.023438zm0 0" fill="#e0f4ff"/><path d="m483.03125 203.152344c-11.773438-3.371094-24.242188-1.234375-34.214844 5.863281-1.917968 1.363281-5.71875 3.480469-9.660156 2.351563-.117188-.03125-.234375-.0625-.351562-.09375l-81.171876-20.0625c-13.207031-46.796876-61.941406-91.199219-90.632812-114.050782-43.480469-34.632812-95.886719-63.984375-133.507812-74.769531h-.003907c-56.21875-16.128906-105.183593 74.691406-121.523437 131.675781-21.957032 76.59375-12.785156 146.136719 20.050781 169.335938h-21.9375c-5.519531 0-9.9921875 4.476562-9.9921875 9.996094 0 18.679687 7.2734375 36.25 20.4921875 49.480468 11.71875 11.707032 26.851563 18.738282 43.148437 20.191406l11.84375 23.691407c5.113282 10.226562 15.390626 16.578125 26.820313 16.578125h307.121094c11.429687 0 21.707031-6.351563 26.820312-16.578125l11.851563-23.699219c35.621094-3.210938 63.636718-33.222656 63.636718-69.664062 0-5.519532-4.476562-9.996094-9.996093-9.996094h-8.425781c2.640624-3.648438 4.707031-7.800782 6.015624-12.375 1.953126-6.796875 2.058594-13.925782.367188-20.6875 5.015625-4.839844 8.707031-10.9375 10.660156-17.746094 6.082032-21.230469-6.175781-43.355469-27.410156-49.441406zm-22.628906 22.148437c4.992187-3.550781 11.230468-4.617187 17.121094-2.929687 10.609374 3.039062 16.742187 14.101562 13.703124 24.714844-1.359374 4.738281-4.402343 8.789062-8.5625 11.40625-4.3125 2.707031-5.898437 8.226562-3.679687 12.8125 2.144531 4.433593 2.578125 9.480468 1.21875 14.210937-3.039063 10.597656-14.132813 16.746094-24.726563 13.707031-5.886718-1.6875-10.609374-5.902344-12.957031-11.5625-3.941406-9.472656-11.003906-16.097656-19.882812-18.648437-.121094-.035157-.242188-.066407-.363281-.097657l-71.960938-17.789062c3.621094-5.6875 6.339844-11.667969 8.117188-17.878906 1.882812-6.566406 2.734374-13.464844 2.566406-20.613282l72.855468 18.007813c8.828126 2.457031 18.25.566406 26.550782-5.339844zm-121.1875 2.4375c-4.390625 15.332031-16.492188 26.910157-29.820313 35.570313-8.324219-13.046875-21.757812-19.871094-39.449219-19.871094-18.253906 0-31.683593 6.96875-39.980468 20.699219-8.292969-13.730469-21.722656-20.699219-39.976563-20.699219-41.492187 0-48.375 35.96875-49.644531 57.09375-16.375.042969-32.191406.277344-46.703125-1.222656 35.492187-25.402344 60.40625-78.523438 72.628906-121.160156 12.203125-42.539063 18.746094-99.992188 2.070313-140.410157 27.972656 13.707031 58.839844 33.257813 86.207031 55.058594 37.632813 29.972656 97.816406 89.101563 84.667969 134.941406zm-43.429688 53.058594c2.089844 5.835937 3.375 13.285156 3.886719 22.609375h-59.441406c1.847656-32.867188 13.269531-39.980469 29.714843-39.980469 13.753907 0 21.480469 5.195313 25.839844 17.371094zm-76.085937 22.605469h-59.441407c1.824219-32.957032 13.246094-39.976563 29.726563-39.976563 16.445313 0 27.867187 7.109375 29.714844 39.976563zm-188.515625-163.828125c14.871094-51.871094 58.257812-129.023438 96.796875-117.972657.007812.003907.011719.003907.015625.003907 40.71875 11.699219 32.105468 105.546875 19.058594 151.03125-14.894532 51.957031-57.816407 128.980469-96.210938 117.980469-40.867188-11.722657-32.746094-105.390626-19.660156-151.042969zm410.671875 223.796875h-75.960938c-5.519531 0-9.996093 4.476562-9.996093 9.996094 0 5.519531 4.476562 9.996093 9.996093 9.996093h59.789063l-7.230469 14.457031c-1.707031 3.410157-5.132813 5.53125-8.941406 5.53125h-307.121094c-3.808594 0-7.234375-2.121093-8.9375-5.53125l-7.230469-14.457031h199.714844c5.515625 0 9.992188-4.476562 9.992188-9.996093 0-5.519532-4.476563-9.996094-9.992188-9.996094h-215.890625c-13.34375 0-25.894531-5.199219-35.335937-14.628906-7.035157-7.042969-11.714844-15.820313-13.640626-25.359376h469.753907c-4.644531 22.78125-24.835938 39.988282-48.96875 39.988282zm-122.167969-59.96875c-.390625-8.09375-1.277344-15.089844-2.71875-21.25 7.125-4.355469 13.429688-9.046875 18.855469-14.015625l81.433593 20.128906c3.847657 1.183594 5.910157 4.929687 6.800782 7.066406 1.199218 2.894531 2.714844 5.59375 4.496094 8.070313zm0 0"/><path d="m71.640625 223.675781c24.046875 6.890625 39.695313-35.242187 46.597656-59.304687 11.511719-40.175782 7.285157-69.476563-10.769531-74.652344-5.335938-1.53125-15.996094-1.769531-27.394531 13.808594-7.390625 10.101562-13.945313 25.007812-19.484375 44.3125-11.507813 40.164062-7.070313 70.640625 11.050781 75.835937zm8.164063-70.328125c9.035156-31.5 18.695312-41.898437 22.152343-43.957031 2.542969 4.003906 5.53125 19.929687-2.9375 49.472656-9.003906 31.398438-18.164062 42.59375-21.898437 45.03125-2.605469-4.335937-5.753906-21.101562 2.683594-50.546875zm0 0"/><path d="m335.910156 373.367188c0 5.519531-4.476562 9.996093-9.996094 9.996093-5.519531 0-9.992187-4.476562-9.992187-9.996093 0-5.519532 4.472656-9.996094 9.992187-9.996094 5.519532 0 9.996094 4.476562 9.996094 9.996094zm0 0"/></svg>