<svg height="431pt" viewBox="0 -7 431.80127 431" width="431pt" xmlns="http://www.w3.org/2000/svg"><path d="m107.996094 180.402344h57.601562v28.796875h-57.601562zm0 0" fill="#5a6470"/><path d="m237.59375 58.003906h43.199219v28.800782h-43.199219zm0 0" fill="#5a6470"/><path d="m266.386719 310c-3.976563-.003906-7.195313-3.230469-7.195313-7.207031.003906-1.113281.261719-2.214844.761719-3.214844l14.398437-28.796875c1.769532-3.5625 6.089844-5.015625 9.652344-3.246094 3.5625 1.765625 5.015625 6.089844 3.246094 9.652344-.003906.011719-.011719.019531-.015625.035156l-14.398437 28.796875c-1.222657 2.441407-3.71875 3.980469-6.449219 3.980469zm0 0" fill="#f49e21"/><path d="m345.59375 410.796875h-280.796875c-15.902344 0-28.796875-12.894531-28.796875-28.800781s12.894531-28.796875 28.796875-28.796875h280.796875c15.902344 0 28.796875 12.890625 28.796875 28.796875s-12.894531 28.800781-28.796875 28.800781zm0 0" fill="#dd3e46"/><g fill="#f49e21"><path d="m107.996094 353.199219h-43.199219l28.800781-201.597657h43.199219zm0 0"/><path d="m79.199219 389.195312h-14.402344c-3.976563 0-7.199219-3.222656-7.199219-7.199218 0-3.976563 3.222656-7.199219 7.199219-7.199219h14.402344c3.976562 0 7.199219 3.222656 7.199219 7.199219 0 3.976562-3.222657 7.199218-7.199219 7.199218zm0 0"/><path d="m345.59375 389.195312h-14.402344c-3.976562 0-7.199218-3.222656-7.199218-7.199218 0-3.976563 3.222656-7.199219 7.199218-7.199219h14.402344c3.976562 0 7.199219 3.222656 7.199219 7.199219 0 3.976562-3.222657 7.199218-7.199219 7.199218zm0 0"/><path d="m266.394531 216.402344h-28.800781l-28.796875-158.398438h28.796875zm0 0"/></g><path d="m237.59375 216.402344h129.597656v57.597656h-95.65625c-18.746094 0-33.941406-15.195312-33.941406-33.941406zm0 0" fill="#dd3e46"/><path d="m21.601562 58.003906h-14.402343c-3.976563 0-7.199219-3.222656-7.199219-7.199218 0-3.976563 3.222656-7.199219 7.199219-7.199219h14.402343c3.976563 0 7.199219 3.222656 7.199219 7.199219 0 3.976562-3.226562 7.199218-7.199219 7.199218zm0 0" fill="#aabece"/><path d="m179.996094 58.003906h-14.398438c-3.980468 0-7.203125-3.222656-7.203125-7.199218 0-3.976563 3.222657-7.199219 7.203125-7.199219h14.398438c3.976562 0 7.199218 3.222656 7.199218 7.199219 0 3.976562-3.222656 7.199218-7.199218 7.199218zm0 0" fill="#aabece"/><path d="m280.792969 252.398438h-14.398438c-3.976562 0-7.199219-3.222657-7.199219-7.199219 0-3.976563 3.222657-7.199219 7.199219-7.199219h14.398438c3.976562 0 7.199219 3.222656 7.199219 7.199219 0 3.976562-3.222657 7.199219-7.199219 7.199219zm0 0" fill="#f49e21"/><path d="m64.796875 36.40625h57.601563v28.796875h-57.601563zm0 0" fill="#aabece"/><path d="m21.601562 7.605469h43.195313v86.398437h-43.195313zm0 0" fill="#5a6470"/><path d="m122.398438 7.605469h43.199218v86.398437h-43.199218zm0 0" fill="#5a6470"/><path d="m359.992188 151.601562h28.800781v72h-28.800781zm0 0" fill="#aabece"/><path d="m424.789062 252.398438c0 27.835937-22.5625 50.398437-50.398437 50.398437-27.832031 0-50.398437-22.5625-50.398437-50.398437 0-27.832032 22.566406-50.398438 50.398437-50.398438 27.835937 0 50.398437 22.566406 50.398437 50.398438zm0 0" fill="#5a6470"/><path d="m359.992188 281.199219h-14.398438c-3.976562 0-7.203125-3.222657-7.203125-7.199219s3.226563-7.203125 7.203125-7.203125h10.546875l12.261719-18.390625c2.238281-3.289062 6.714844-4.140625 10.003906-1.902344 3.242188 2.207032 4.121094 6.605469 1.976562 9.886719l-14.398437 21.601563c-1.335937 2.003906-3.585937 3.207031-5.992187 3.207031zm0 0" fill="#aabece"/><path d="m323.992188 108.402344h86.398437v43.199218h-57.597656c-15.90625 0-28.800781-12.894531-28.800781-28.800781zm0 0" fill="#5a6470"/><path d="m410.390625 158.800781h-57.597656c-19.875-.023437-35.976563-16.125-36-36v-14.398437c0-3.976563 3.21875-7.199219 7.195312-7.199219h.003907 86.398437c3.976563-.003906 7.199219 3.21875 7.199219 7.195313v.003906 43.199218c.003906 3.976563-3.21875 7.199219-7.195313 7.199219zm-79.199219-43.199219v7.203126c.015625 11.921874 9.675782 21.585937 21.601563 21.597656h50.398437v-28.796875h-72zm0 0" fill="#5a6470"/><path d="m142.234375 146.882812c-1.367187-1.574218-3.351563-2.480468-5.4375-2.480468h-43.199219c-3.582031 0-6.617187 2.632812-7.125 6.179687l-28.007812 196.054688c-19.554688 3.476562-32.585938 22.144531-29.113282 41.695312 3.054688 17.175781 18 29.683594 35.445313 29.664063h280.792969c19.882812 0 36-16.117188 36-36 0-19.882813-16.117188-36-36-36h-229.292969l18.511719-129.597656h30.785156c3.976562.003906 7.199219-3.21875 7.203125-7.195313v-.003906-28.796875c0-3.976563-3.222656-7.203125-7.199219-7.203125 0 0 0 0-.003906 0h-24.613281l2.941406-20.578125c.296875-2.066406-.316406-4.160156-1.6875-5.738282zm224.957031 235.113282c-.011718 11.925781-9.675781 21.585937-21.597656 21.601562h-280.796875c-11.925781 0-21.597656-9.671875-21.597656-21.601562 0-11.929688 9.671875-21.597656 21.597656-21.597656h280.796875c11.921875.011718 21.585938 9.675781 21.597656 21.597656zm-294.09375-36 26.742188-187.195313h28.65625l-26.742188 187.195313zm85.300782-158.394532v14.398438h-21.53125l2.058593-14.398438zm0 0"/><path d="m79.199219 374.796875h-14.402344c-3.976563 0-7.199219 3.222656-7.199219 7.199219 0 3.976562 3.222656 7.199218 7.199219 7.199218h14.402344c3.976562 0 7.199219-3.222656 7.199219-7.199218 0-3.976563-3.222657-7.199219-7.199219-7.199219zm0 0"/><path d="m331.191406 389.195312h14.402344c3.976562 0 7.199219-3.222656 7.199219-7.199218 0-3.976563-3.222657-7.199219-7.199219-7.199219h-14.402344c-3.976562 0-7.199218 3.222656-7.199218 7.199219 0 3.976562 3.222656 7.199218 7.199218 7.199218zm0 0"/><path d="m368.402344 248.40625-12.261719 18.394531h-10.546875c-3.976562 0-7.199219 3.222657-7.199219 7.199219s3.222657 7.199219 7.199219 7.199219h14.398438c2.40625 0 4.65625-1.203125 5.992187-3.207031l14.398437-21.597657c2.175782-3.328125 1.242188-7.792969-2.085937-9.96875-3.285156-2.144531-7.6875-1.265625-9.894531 1.980469zm0 0"/><path d="m14.398438 7.605469v36h-7.199219c-3.976563 0-7.199219 3.222656-7.199219 7.199219 0 3.976562 3.222656 7.199218 7.199219 7.199218h7.203125v36c-.003906 3.976563 3.21875 7.199219 7.195312 7.199219h.003906 43.199219c3.976563.003906 7.199219-3.21875 7.199219-7.195313 0-.003906 0-.003906 0-.003906v-21.601562h43.199219v21.601562c0 3.976563 3.222656 7.199219 7.195312 7.199219h.003907 43.199218c3.976563.003906 7.199219-3.21875 7.199219-7.195313 0-.003906 0-.003906 0-.003906v-36h7.199219c3.976562 0 7.203125-3.222656 7.203125-7.199218 0-3.976563-3.226563-7.199219-7.203125-7.199219h-7.199219v-36c0-3.976563-3.222656-7.199219-7.195313-7.199219-.003906 0-.003906 0-.003906 0h-43.199218c-3.976563-.003906-7.199219 3.21875-7.199219 7.195312v.003907 21.597656h-43.203125v-21.597656c.003906-3.976563-3.21875-7.199219-7.195313-7.203125h-.003906-43.195313c-3.976562 0-7.199218 3.222656-7.203124 7.199218zm115.199218 7.199219h28.800782v72h-28.800782zm-14.398437 28.800781v14.398437h-43.203125v-14.398437zm-86.398438-28.800781h28.796875v72h-28.796875zm0 0"/><path d="m280.792969 238h-14.398438c-3.976562 0-7.199219 3.222656-7.199219 7.199219 0 3.976562 3.222657 7.203125 7.199219 7.203125h14.398438c3.976562 0 7.199219-3.226563 7.199219-7.203125 0-3.976563-3.222657-7.199219-7.199219-7.199219zm0 0"/><path d="m395.992188 199.042969v-40.242188h14.398437c3.976563.003907 7.199219-3.21875 7.199219-7.195312v-.003907-43.199218c.003906-3.976563-3.21875-7.199219-7.195313-7.199219h-.003906-86.398437c-3.976563 0-7.199219 3.222656-7.199219 7.195313v.003906 14.398437c.023437 19.875 16.125 35.976563 36 36v40.238281c-5.988281 2.445313-11.523438 5.878907-16.371094 10.160157h-64.019531l-20.945313-115.199219h29.335938c3.976562.003906 7.199219-3.21875 7.199219-7.195312v-.003907-28.796875c0-3.976562-3.21875-7.199218-7.195313-7.199218-.003906 0-.003906 0-.003906 0h-71.996094c-3.980469 0-7.203125 3.226562-7.199219 7.203124 0 .429688.039063.859376.113282 1.28125l28.683593 157.757813v23.011719c.035157 21.792968 17.050781 39.777344 38.808594 41.019531l-9.25 18.5c-1.777344 3.554687-.335937 7.882813 3.21875 9.660156 3.558594 1.777344 7.882813.335938 9.660156-3.21875l12.410157-24.820312h39.34375c15.898437 27.527343 51.101562 36.953125 78.632812 21.054687 27.527344-15.898437 36.953125-51.105468 21.054688-78.632812-6.421876-11.117188-16.375-19.769532-28.28125-24.578125zm-64.800782-76.238281v-7.203126h72v28.800782h-50.398437c-11.925781-.011719-21.585938-9.675782-21.601563-21.597656zm36 35.996093h14.402344v36.5c-4.777344-.667969-9.625-.667969-14.402344 0zm-93.597656-79.199219h-24.753906l-2.617188-14.398437h27.371094zm-42.007812-14.398437 26.179687 143.996094h-14.164063l-26.179687-143.996094zm39.949218 201.597656c-14.761718-.019531-26.722656-11.980469-26.738281-26.742187v-16.457032h79.789063c-7.652344 13.035157-9.773438 28.585938-5.894532 43.199219zm102.855469 28.796875c-23.855469 0-43.199219-19.339844-43.199219-43.195312 0-23.859375 19.34375-43.199219 43.199219-43.199219 23.859375 0 43.199219 19.339844 43.199219 43.199219-.027344 23.84375-19.351563 43.171875-43.199219 43.195312zm0 0"/></svg>